<svg width="20" height="20" viewBox="0 0 20 20" fill="none" xmlns="http://www.w3.org/2000/svg">
  <circle class="circle" cx="10" cy="10" r="9" stroke="currentColor" stroke-width="2"/>
  <path class="plus" d="M7 9C6.44772 9 6 9.44772 6 10C6 10.5523 6.44772 11 7 11V9ZM13 11C13.5523 11 14 10.5523 14 10C14 9.44772 13.5523 9 13 9V11ZM11 7C11 6.44772 10.5523 6 10 6C9.44772 6 9 6.44772 9 7H11ZM9 13C9 13.5523 9.44772 14 10 14C10.5523 14 11 13.5523 11 13H9ZM7 11H10V9H7V11ZM10 11H13V9H10V11ZM9 7V10H11V7H9ZM9 10V13H11V10H9Z" fill="currentColor"/>
</svg>
