<svg
  width="16"
  height="16"
  viewBox="0 0 16 16"
  xmlns="http://www.w3.org/2000/svg"
  style="fill-rule:evenodd;clip-rule:evenodd;stroke-linejoin:round;stroke-miterlimit:2;"
>
  <path d="M8,0c4.415,0 8,3.585 8,8c0,4.415 -3.585,8 -8,8c-4.415,0 -8,-3.585 -8,-8c0,-4.415 3.585,-8 8,-8Zm-0,6.586l-1.755,-1.755c-0.39,-0.39 -1.024,-0.39 -1.414,0c-0.39,0.391 -0.39,1.024 -0,1.414l1.754,1.755l-1.754,1.754c-0.39,0.391 -0.39,1.024 -0,1.415c0.39,0.39 1.024,0.39 1.414,-0l1.755,-1.755l1.754,1.755c0.39,0.39 1.024,0.39 1.414,-0c0.391,-0.391 0.391,-1.024 0,-1.415l-1.754,-1.754l1.754,-1.755c0.391,-0.39 0.391,-1.023 0,-1.414c-0.39,-0.39 -1.024,-0.39 -1.414,0l-1.754,1.755Z"
    fill="currentColor"
  />
</svg>
